<svg width="30" height="30" viewBox="0 0 30 30" fill="none" xmlns="http://www.w3.org/2000/svg">
<path d="M17.6085 8.96657H24.753C25.3196 8.96657 25.6028 8.96657 25.7685 9.08569C25.9131 9.18962 26.0072 9.3496 26.0279 9.52643C26.0515 9.7291 25.914 9.97674 25.6388 10.472L23.9337 13.5411C23.834 13.7207 23.7841 13.8105 23.7645 13.9057C23.7472 13.9898 23.7472 14.0766 23.7645 14.1608C23.7841 14.2559 23.834 14.3457 23.9337 14.5254L25.6388 17.5945C25.9139 18.0897 26.0515 18.3374 26.0279 18.54C26.0072 18.7169 25.9131 18.8769 25.7685 18.9808C25.6028 19.0999 25.3196 19.0999 24.753 19.0999H15.8352C15.1258 19.0999 14.7711 19.0999 14.5001 18.9618C14.2618 18.8404 14.068 18.6466 13.9465 18.4083C13.8085 18.1373 13.8085 17.7826 13.8085 17.0732V14.0332M9.37516 26.6999L4.30849 6.43324M6.20854 14.0332H15.5818C16.2912 14.0332 16.6459 14.0332 16.9169 13.8952C17.1552 13.7737 17.349 13.58 17.4704 13.3416C17.6085 13.0707 17.6085 12.716 17.6085 12.0066V5.92657C17.6085 5.21717 17.6085 4.86247 17.4704 4.59151C17.349 4.35318 17.1552 4.1594 16.9169 4.03796C16.6459 3.8999 16.2912 3.8999 15.5818 3.8999H6.27084C5.38605 3.8999 4.94365 3.8999 4.64107 4.08323C4.37587 4.24392 4.17882 4.49629 4.08726 4.79255C3.98279 5.13057 4.09009 5.55975 4.30469 6.41813L6.20854 14.0332Z" stroke="#344054" stroke-width="2.4" stroke-linecap="round" stroke-linejoin="round"/>
</svg>
