<svg width="30" height="30" viewBox="0 0 30 30" fill="none" xmlns="http://www.w3.org/2000/svg">
<g clip-path="url(#clip0_192_7650)">
<path d="M28.9191 15.4319C28.9191 14.453 28.8397 13.4689 28.6704 12.5059H15.0879V18.051H22.866C22.5432 19.8395 21.5061 21.4215 19.9876 22.4269V26.0249H24.6279C27.3529 23.5168 28.9191 19.813 28.9191 15.4319Z" fill="#4285F4"/>
<path d="M15.0889 29.501C18.9726 29.501 22.2479 28.2258 24.6342 26.0247L19.9938 22.4267C18.7028 23.305 17.0361 23.8024 15.0942 23.8024C11.3374 23.8024 8.15214 21.2679 7.00924 17.8604H2.2207V21.5695C4.66524 26.4321 9.64426 29.501 15.0889 29.501Z" fill="#34A853"/>
<path d="M7.00255 17.8603C6.39935 16.0718 6.39935 14.1353 7.00255 12.3468V8.6377H2.2193C0.176899 12.7066 0.176899 17.5005 2.2193 21.5694L7.00255 17.8603Z" fill="#FBBC04"/>
<path d="M15.0889 6.39979C17.1419 6.36804 19.1261 7.14055 20.6129 8.5586L24.7242 4.44734C22.1209 2.0028 18.6658 0.658836 15.0889 0.701166C9.64426 0.701166 4.66524 3.77006 2.2207 8.63796L7.00395 12.3471C8.14156 8.93427 11.3321 6.39979 15.0889 6.39979Z" fill="#EA4335"/>
</g>
<defs>
<clipPath id="clip0_192_7650">
<rect width="28.8" height="28.8" fill="white" transform="translate(0.400391 0.700195)"/>
</clipPath>
</defs>
</svg>
